<svg width="24" height="24" viewBox="0 0 24 24" fill="none" xmlns="http://www.w3.org/2000/svg">
<rect width="24" height="24" rx="12" fill="#E9FEDC"/>
<path d="M13.8261 12H14.6087V13.692L15.8817 14.538L15.4904 15.318L13.8261 14.214V12ZM14.3478 10.8C13.656 10.8 12.9924 11.1161 12.5032 11.6787C12.014 12.2413 11.7391 13.0044 11.7391 13.8C11.7391 14.5956 12.014 15.3587 12.5032 15.9213C12.9924 16.4839 13.656 16.8 14.3478 16.8C15.0397 16.8 15.7032 16.4839 16.1925 15.9213C16.6817 15.3587 16.9565 14.5956 16.9565 13.8C16.9565 13.0044 16.6817 12.2413 16.1925 11.6787C15.7032 11.1161 15.0397 10.8 14.3478 10.8ZM14.3478 9.6C15.3164 9.6 16.2454 10.0425 16.9303 10.8302C17.6152 11.6178 18 12.6861 18 13.8C18 14.9139 17.6152 15.9822 16.9303 16.7698C16.2454 17.5575 15.3164 18 14.3478 18C12.8922 18 11.6348 17.016 11.0452 15.6H6V13.8C6 12.204 8.78087 11.4 10.1739 11.4C10.487 11.4 10.873 11.442 11.28 11.52C11.6109 10.9304 12.0651 10.4456 12.601 10.1102C13.137 9.77475 13.7376 9.59933 14.3478 9.6ZM10.6957 13.8C10.6957 13.38 10.7478 12.972 10.847 12.6C10.6278 12.558 10.3983 12.54 10.1739 12.54C8.62435 12.54 6.9913 13.416 6.9913 13.8V14.46H10.7426C10.7119 14.2418 10.6962 14.0211 10.6957 13.8ZM10.1739 6C10.7274 6 11.2582 6.25286 11.6496 6.70294C12.041 7.15303 12.2609 7.76348 12.2609 8.4C12.2609 9.03652 12.041 9.64697 11.6496 10.0971C11.2582 10.5471 10.7274 10.8 10.1739 10.8C9.62042 10.8 9.08959 10.5471 8.69821 10.0971C8.30683 9.64697 8.08696 9.03652 8.08696 8.4C8.08696 7.76348 8.30683 7.15303 8.69821 6.70294C9.08959 6.25286 9.62042 6 10.1739 6ZM10.1739 7.14C9.88333 7.14 9.60464 7.27275 9.39917 7.50905C9.1937 7.74534 9.07826 8.06583 9.07826 8.4C9.07826 8.73417 9.1937 9.05466 9.39917 9.29095C9.60464 9.52725 9.88333 9.66 10.1739 9.66C10.4645 9.66 10.7432 9.52725 10.9487 9.29095C11.1541 9.05466 11.2696 8.73417 11.2696 8.4C11.2696 8.06583 11.1541 7.74534 10.9487 7.50905C10.7432 7.27275 10.4645 7.14 10.1739 7.14Z" fill="#46BE00"/>
</svg>
