<svg width="28" height="30" viewBox="0 0 28 30" fill="none" xmlns="http://www.w3.org/2000/svg">
<path d="M23.2813 11.8513V10.8819C23.2813 5.562 19.1233 1.25 14.0001 1.25C8.87684 1.25 4.71884 5.562 4.71884 10.8819V11.8513C4.72049 13.0084 4.39027 14.1417 3.76734 15.1169L2.24384 17.4888C0.85371 19.6544 1.91521 22.5983 4.33384 23.283C10.6535 25.0746 17.3467 25.0746 23.6663 23.283C26.085 22.5983 27.1465 19.6544 25.7563 17.4901L24.2328 15.1183C23.6094 14.1432 23.2787 13.0099 23.28 11.8526L23.2813 11.8513Z" stroke="#8B9373" stroke-width="1.5"/>
<path d="M7.8125 24.625C8.71312 27.0285 11.1427 28.75 14 28.75C16.8573 28.75 19.2869 27.0285 20.1875 24.625" stroke="#8B9373" stroke-width="1.5" stroke-linecap="round"/>
</svg>
