<svg width="24" height="24" viewBox="0 0 24 24" fill="none" xmlns="http://www.w3.org/2000/svg">
<path fill-rule="evenodd" clip-rule="evenodd" d="M6.77381 6.40025L7.58581 20.0483C7.59804 20.2517 7.68742 20.4427 7.83572 20.5825C7.98401 20.7222 8.18005 20.8001 8.38381 20.8002H15.6158C15.8196 20.8001 16.0156 20.7222 16.1639 20.5825C16.3122 20.4427 16.4016 20.2517 16.4138 20.0483L17.2258 6.40025H18.4288L17.6118 20.1192C17.5815 20.6281 17.358 21.1062 16.987 21.4558C16.616 21.8054 16.1256 22.0001 15.6158 22.0002H8.38381C7.87406 22.0001 7.38359 21.8054 7.01261 21.4558C6.64163 21.1062 6.41814 20.6281 6.38781 20.1192L5.57081 6.40025H6.77381ZM9.49981 9.00025H10.6998L11.1998 18.0002H9.99981L9.49981 9.00025ZM13.2998 9.00025H14.4998L13.9998 18.0002H12.7998L13.2998 9.00025ZM4.45881 2.35325L20.2158 5.13125C20.2806 5.1426 20.3425 5.16661 20.398 5.20192C20.4535 5.23723 20.5014 5.28314 20.5391 5.33702C20.5769 5.39089 20.6036 5.45168 20.6178 5.5159C20.6319 5.58011 20.6333 5.6465 20.6218 5.71125L20.4998 6.40025L3.75781 3.44825L3.87981 2.75825C3.90298 2.62781 3.97696 2.51189 4.08552 2.43596C4.19408 2.36002 4.32834 2.33027 4.45881 2.35325ZM10.7488 1.22825L14.6888 1.92325C14.7536 1.9346 14.8155 1.95861 14.871 1.99392C14.9265 2.02923 14.9744 2.07514 15.0121 2.12902C15.0499 2.18289 15.0766 2.24368 15.0908 2.3079C15.1049 2.37211 15.1063 2.4385 15.0948 2.50325L14.9728 3.19225L10.0488 2.32325L10.1708 1.63425C10.1822 1.56957 10.2062 1.50776 10.2414 1.45235C10.2766 1.39694 10.3225 1.34902 10.3762 1.31132C10.43 1.27362 10.4907 1.24688 10.5548 1.23262C10.6189 1.21837 10.6851 1.21688 10.7498 1.22825H10.7488Z" fill="#1E1E1E"/>
</svg>
