<svg width="60" height="60" viewBox="0 0 60 60" fill="none" xmlns="http://www.w3.org/2000/svg">
<path fill-rule="evenodd" clip-rule="evenodd" d="M0 30V37C0 49.7025 10.2975 60 23 60H30H37C49.7025 60 60 49.7025 60 37V30V23C60 10.2975 49.7025 0 37 0H30H23C10.2975 0 0 10.2975 0 23V30Z" fill="#FFE0EE"/>
<path d="M25.6088 35.3963C26.0963 35.3963 26.4913 35.9832 26.4913 36.7047C26.4908 36.8772 26.4675 37.048 26.4229 37.2071C26.3783 37.3662 26.3132 37.5107 26.2312 37.6322C26.1493 37.7537 26.0521 37.8499 25.9453 37.9152C25.8385 37.9806 25.7241 38.0138 25.6088 38.0131H22.04C21.9245 38.0141 21.81 37.981 21.703 37.9158C21.5961 37.8505 21.4988 37.7544 21.4167 37.6329C21.3346 37.5113 21.2694 37.3668 21.2247 37.2075C21.18 37.0483 21.1567 36.8774 21.1562 36.7047C21.1562 35.9832 21.5525 35.3963 22.04 35.3963H25.6088ZM26.4713 30.5495C26.9587 30.5495 27.3538 31.1383 27.3538 31.8579C27.3533 32.0307 27.33 32.2015 27.2853 32.3608C27.2406 32.5201 27.1754 32.6646 27.0933 32.7861C27.0112 32.9076 26.9139 33.0038 26.807 33.069C26.7 33.1343 26.5855 33.1673 26.47 33.1664H22.06C21.9446 33.1671 21.8302 33.1338 21.7234 33.0685C21.6166 33.0031 21.5195 32.907 21.4375 32.7855C21.3556 32.664 21.2904 32.5195 21.2458 32.3604C21.2012 32.2012 21.178 32.0305 21.1775 31.8579C21.1775 31.1365 21.5725 30.5495 22.06 30.5495H26.4713ZM31.3013 24.0822C31.3049 23.0372 31.5857 22.0371 32.0821 21.3015C32.5785 20.5658 33.2499 20.1549 33.9487 20.1589C34.6478 20.1549 35.3194 20.5661 35.8158 21.3021C36.3122 22.0381 36.5929 23.0388 36.5963 24.0841C36.5923 25.1297 36.3115 26.1303 35.8153 26.867C35.3191 27.6037 34.648 28.0165 33.9487 28.015C33.2494 28.016 32.5783 27.6028 32.0821 26.8658C31.586 26.1288 31.3052 25.128 31.3013 24.0822ZM39.125 36.3421C39.25 37.4991 38.6525 38.5477 37.8687 38.5439H30.0287C29.8446 38.5445 29.6626 38.4851 29.4954 38.3701C29.3281 38.255 29.1796 38.0869 29.0601 37.8774C28.9406 37.668 28.853 37.4222 28.8033 37.1571C28.7537 36.8919 28.7431 36.6139 28.7725 36.3421C29.1662 32.7121 30.5113 29.7832 32.2675 28.6224C32.7818 29.0496 33.3604 29.2738 33.9487 29.2738C34.5371 29.2738 35.1157 29.0496 35.63 28.6224C37.3862 29.7832 38.7325 32.7159 39.125 36.3421ZM28.235 28.3234C17.76 28.3234 28.0513 28.3196 22.0587 28.3196C21.9432 28.3206 21.8287 28.2875 21.7218 28.2223C21.6148 28.157 21.5176 28.0609 21.4355 27.9394C21.3534 27.8179 21.2881 27.6733 21.2434 27.5141C21.1987 27.3548 21.1755 27.1839 21.175 27.0112C21.175 26.2897 21.5712 25.7028 22.0587 25.7028L28.235 25.7047C28.7225 25.7047 29.1187 26.2916 29.1175 27.015C29.1175 27.1877 29.0946 27.3588 29.0502 27.5183C29.0057 27.6777 28.9406 27.8225 28.8586 27.9441C28.7765 28.0658 28.6792 28.1619 28.5722 28.227C28.4651 28.2921 28.3505 28.3248 28.235 28.3234ZM22.06 23.4748C21.9444 23.4765 21.8296 23.4439 21.7225 23.379C21.6153 23.314 21.5178 23.2179 21.4356 23.0962C21.3534 22.9745 21.2882 22.8297 21.2437 22.6701C21.1992 22.5105 21.1762 22.3393 21.1762 22.1664C21.1762 21.4449 21.5725 20.8579 22.06 20.8579H28.235C28.7213 20.8579 29.1163 21.443 29.1163 22.1664C29.1149 22.5145 29.0212 22.8477 28.8558 23.0927C28.6903 23.3376 28.4666 23.4744 28.2337 23.4729L22.06 23.4748ZM31.8212 42.385C32.0388 42.3851 32.2475 42.2566 32.402 42.0277C32.5565 41.7988 32.6443 41.4879 32.6462 41.1626H41.4713V17.6112H18.53V41.1607H27.3538C27.3538 41.8355 27.7225 42.3832 28.1788 42.3832L31.8212 42.385ZM45 41.1626V42.9514C45 44.0822 44.38 45 43.6175 45H16.3825C15.62 45 15 44.0841 15 42.9514V41.1626H16.7663V17.5832C16.7663 16.157 17.545 15 18.5087 15H41.4925C42.455 15 43.235 16.157 43.235 17.5832V41.1626H45Z" fill="url(#paint0_linear_3614_5831)"/>
<defs>
<linearGradient id="paint0_linear_3614_5831" x1="30" y1="15" x2="30" y2="45" gradientUnits="userSpaceOnUse">
<stop stop-color="#C8237F"/>
<stop offset="1" stop-color="#852A88"/>
</linearGradient>
</defs>
</svg>
