<svg width="96" height="36" viewBox="0 0 96 36" fill="none" xmlns="http://www.w3.org/2000/svg">
<g clip-path="url(#clip0_2374_5357)">
<path d="M68 0H88C92.42 0 96 3.58 96 8V28C96 32.42 92.42 36 88 36H68C63.58 36 60 32.42 60 28V8C60 3.58 63.58 0 68 0Z" fill="url(#paint0_linear_2374_5357)"/>
<rect x="84" y="17.9004" width="2" height="12" rx="1" transform="rotate(126.602 84 17.9004)" fill="white"/>
<rect x="74.582" y="26" width="2" height="12" rx="1" transform="rotate(-128.302 74.582 26)" fill="white"/>
</g>
<g clip-path="url(#clip1_2374_5357)">
<path d="M28 36H8C3.58 36 0 32.42 0 28V8C0 3.58 3.58 0 8 0H28C32.42 0 36 3.58 36 8V28C36 32.42 32.42 36 28 36Z" fill="url(#paint1_linear_2374_5357)"/>
<rect x="12" y="18.0996" width="2" height="12" rx="1" transform="rotate(-53.398 12 18.0996)" fill="white"/>
<rect x="21.418" y="10" width="2" height="12" rx="1" transform="rotate(51.698 21.418 10)" fill="white"/>
</g>
<defs>
<linearGradient id="paint0_linear_2374_5357" x1="78" y1="36" x2="78" y2="0" gradientUnits="userSpaceOnUse">
<stop stop-color="#ED1E79"/>
<stop offset="1" stop-color="#662D8C"/>
</linearGradient>
<linearGradient id="paint1_linear_2374_5357" x1="18" y1="0" x2="18" y2="36" gradientUnits="userSpaceOnUse">
<stop stop-color="#ED1E79"/>
<stop offset="1" stop-color="#662D8C"/>
</linearGradient>
<clipPath id="clip0_2374_5357">
<rect width="36" height="36" fill="white" transform="matrix(-1 0 0 -1 96 36)"/>
</clipPath>
<clipPath id="clip1_2374_5357">
<rect width="36" height="36" fill="white"/>
</clipPath>
</defs>
</svg>
