<svg width="24" height="24" viewBox="0 0 24 24" fill="none" xmlns="http://www.w3.org/2000/svg">
<rect width="24" height="24" rx="12" fill="#D6ECFC"/>
<path d="M9 17C8.725 17 8.48967 16.9022 8.294 16.7065C8.09833 16.5108 8.00033 16.2753 8 16V14C8 13.725 8.098 13.4897 8.294 13.294C8.49 13.0983 8.72533 13.0003 9 13H15C15.275 13 15.5105 13.098 15.7065 13.294C15.9025 13.49 16.0003 13.7253 16 14V16C16 16.275 15.9022 16.5105 15.7065 16.7065C15.5108 16.9025 15.2753 17.0003 15 17H9ZM9.5 15H14.5C14.6417 15 14.7605 14.952 14.8565 14.856C14.9525 14.76 15.0003 14.6413 15 14.5C14.9997 14.3587 14.9517 14.24 14.856 14.144C14.7603 14.048 14.6417 14 14.5 14H9.5C9.35833 14 9.23967 14.048 9.144 14.144C9.04833 14.24 9.00033 14.3587 9 14.5C8.99967 14.6413 9.04767 14.7602 9.144 14.8565C9.24033 14.9528 9.359 15.0007 9.5 15ZM11.5875 12.425L9.7375 9.8375C9.6625 9.72917 9.6105 9.6105 9.5815 9.4815C9.5525 9.3525 9.54617 9.22117 9.5625 9.0875C9.6625 8.47917 9.9375 7.97917 10.3875 7.5875C10.8375 7.19583 11.375 7 12 7C12.625 7 13.1625 7.19583 13.6125 7.5875C14.0625 7.97917 14.3375 8.47917 14.4375 9.0875C14.4542 9.22083 14.4478 9.35217 14.4185 9.4815C14.3892 9.61083 14.3372 9.7295 14.2625 9.8375L12.4125 12.425C12.3125 12.5667 12.175 12.6375 12 12.6375C11.825 12.6375 11.6875 12.5667 11.5875 12.425ZM12 11.6L13.5 9.5C13.5 9.08333 13.3542 8.72917 13.0625 8.4375C12.7708 8.14583 12.4167 8 12 8C11.5833 8 11.2292 8.14583 10.9375 8.4375C10.6458 8.72917 10.5 9.08333 10.5 9.5L12 11.6Z" fill="#2288FF"/>
</svg>
